<svg width="164" height="31" viewBox="0 0 164 31" fill="none" xmlns="http://www.w3.org/2000/svg">
<path d="M20.64 0.559998V6.16H13.48V30H7.68V6.16H0.8V0.559998H20.64ZM38.4219 15.32C38.4219 12.6533 39.0885 10.16 40.4219 7.84C41.7819 5.52 43.6085 3.68 45.9019 2.32C48.2219 0.933332 50.7285 0.239999 53.4219 0.239999C56.1152 0.239999 58.6085 0.933332 60.9019 2.32C63.2219 3.68 65.0619 5.52 66.4219 7.84C67.8085 10.16 68.5019 12.6533 68.5019 15.32C68.5019 18.04 67.8085 20.5467 66.4219 22.84C65.0619 25.1333 63.2219 26.96 60.9019 28.32C58.6085 29.6533 56.1152 30.32 53.4219 30.32C50.7019 30.32 48.1952 29.6533 45.9019 28.32C43.6085 26.96 41.7819 25.1333 40.4219 22.84C39.0885 20.5467 38.4219 18.04 38.4219 15.32ZM44.4219 15.32C44.4219 17.0267 44.8219 18.6 45.6219 20.04C46.4485 21.48 47.5552 22.6267 48.9419 23.48C50.3552 24.3067 51.9152 24.72 53.6219 24.72C55.2752 24.72 56.7819 24.3067 58.1419 23.48C59.5019 22.6267 60.5685 21.4933 61.3419 20.08C62.1152 18.64 62.5019 17.0533 62.5019 15.32C62.5019 13.56 62.1019 11.96 61.3019 10.52C60.5019 9.08 59.4085 7.94667 58.0219 7.12C56.6619 6.26667 55.1419 5.84 53.4619 5.84C51.7819 5.84 50.2485 6.26667 48.8619 7.12C47.5019 7.94667 46.4219 9.08 45.6219 10.52C44.8219 11.96 44.4219 13.56 44.4219 15.32ZM89.2844 0.559998H98.0844C101.844 0.559998 104.938 1.29333 107.364 2.76C109.791 4.2 111.551 6.08 112.644 8.4C113.764 10.6933 114.324 13.16 114.324 15.8C114.324 18.6267 113.658 21.12 112.324 23.28C110.991 25.44 109.191 27.1067 106.924 28.28C104.684 29.4267 102.218 30 99.5244 30H89.2844V0.559998ZM98.5244 24.4C101.538 24.4 103.924 23.6267 105.684 22.08C107.444 20.5333 108.324 18.3067 108.324 15.4C108.324 13.0533 107.831 11.1867 106.844 9.8C105.884 8.41333 104.751 7.45333 103.444 6.92C102.164 6.38667 100.951 6.12 99.8044 6.12H95.0844V24.4H98.5244ZM133.344 15.32C133.344 12.6533 134.01 10.16 135.344 7.84C136.704 5.52 138.53 3.68 140.824 2.32C143.144 0.933332 145.65 0.239999 148.344 0.239999C151.037 0.239999 153.53 0.933332 155.824 2.32C158.144 3.68 159.984 5.52 161.344 7.84C162.73 10.16 163.424 12.6533 163.424 15.32C163.424 18.04 162.73 20.5467 161.344 22.84C159.984 25.1333 158.144 26.96 155.824 28.32C153.53 29.6533 151.037 30.32 148.344 30.32C145.624 30.32 143.117 29.6533 140.824 28.32C138.53 26.96 136.704 25.1333 135.344 22.84C134.01 20.5467 133.344 18.04 133.344 15.32ZM139.344 15.32C139.344 17.0267 139.744 18.6 140.544 20.04C141.37 21.48 142.477 22.6267 143.864 23.48C145.277 24.3067 146.837 24.72 148.544 24.72C150.197 24.72 151.704 24.3067 153.064 23.48C154.424 22.6267 155.49 21.4933 156.264 20.08C157.037 18.64 157.424 17.0533 157.424 15.32C157.424 13.56 157.024 11.96 156.224 10.52C155.424 9.08 154.33 7.94667 152.944 7.12C151.584 6.26667 150.064 5.84 148.384 5.84C146.704 5.84 145.17 6.26667 143.784 7.12C142.424 7.94667 141.344 9.08 140.544 10.52C139.744 11.96 139.344 13.56 139.344 15.32Z" fill="white"/>
</svg>
